<?xml version="1.0" encoding="UTF-8"?><!DOCTYPE svg PUBLIC "-//W3C//DTD SVG 1.1//EN" "http://www.w3.org/Graphics/SVG/1.1/DTD/svg11.dtd"><svg xmlns="http://www.w3.org/2000/svg" xmlns:xlink="http://www.w3.org/1999/xlink" version="1.1" id="Layer_1" x="0px" y="0px" fill="#e0ba98" width="91px" height="91px" viewBox="0 0 91 91" xml:space="preserve"><path d="M62.091 33.83l-8.997-4.958v-7.934a2.16 2.16 0 0 0 1.968-2.148v-6.084a2.16 2.16 0 0 0-1.968-2.148V9.2a2.16 2.16 0 0 0-2.156-2.157H41.95A2.16 2.16 0 0 0 39.794 9.2v1.357a2.16 2.16 0 0 0-1.967 2.148v6.084c0 1.125.866 2.052 1.967 2.148v7.854l-9.141 5.14c-2.912 1.701-4.516 4.271-4.516 7.236V76.23c0 4.262 3.062 7.727 6.824 7.727h26.967c3.763 0 6.823-3.465 6.823-7.727V41.167c0-3.563-2.413-6.129-4.66-7.337zM50.844 9.292v1.257h-8.801V9.292h8.801zM64.501 76.23c0 3.02-2.052 5.477-4.573 5.477H32.961c-2.522 0-4.574-2.457-4.574-5.477V41.167c0-2.133 1.208-4.013 3.383-5.283l9.701-5.456c.354-.199.572-.573.572-.979v-8.503h5.583a1.125 1.125 0 0 0 0-2.25h-7.55V12.8h12.736v5.896h-.843c-.621 0-1.125.504-1.125 1.125v9.716c0 .41.223.787.582.985l9.59 5.284c1.685.905 3.485 2.79 3.485 5.361V76.23z"/><path d="M34.443 71.945h24c.621 0 1.125-.504 1.125-1.125v-28.5c0-.621-.504-1.125-1.125-1.125h-24c-.621 0-1.125.504-1.125 1.125v28.5c0 .621.504 1.125 1.125 1.125zm1.125-28.499h21.75v26.25h-21.75v-26.25z"/><path d="M61.368 77.223c-.584-.133-5.966-1.303-14.761-1.303-9.137 0-14.846 1.246-15.084 1.299a1.125 1.125 0 0 0 .489 2.197c.056-.014 5.704-1.246 14.596-1.246 8.549 0 13.701 1.119 14.263 1.248a1.125 1.125 0 0 0 .497-2.195z"/><metadata><rdf:RDF xmlns:rdf="http://www.w3.org/1999/02/22-rdf-syntax-ns#" xmlns:rdfs="http://www.w3.org/2000/01/rdf-schema#" xmlns:dc="http://purl.org/dc/elements/1.1/"><rdf:Description about="https://iconscout.com/legal#licenses" dc:title="drinks,beverages" dc:description="drinks,beverages" dc:publisher="Iconscout" dc:date="2017-10-18" dc:format="image/svg+xml" dc:language="en"><dc:creator><rdf:Bag><rdf:li>BomSymbols .</rdf:li></rdf:Bag></dc:creator></rdf:Description></rdf:RDF></metadata></svg>